PathFileType	4	(X/Y/Z)	./resultDataOpenSim/trcMotMarkerGrf/sub06/qtm-13-05.trc
DataRate	CameraRate	NumFrames	NumMarkers	Units	OrigDataRate	OrigDataStartFrame	OrigNumFrames
250.000000	250.000000	12	24	m	250.000000	1	493
Frame#	Time	L.Toe.Tip			R.Toe.Tip			L.Ankle.Lat			R.Ankle.Lat			L.Ankle.Med			R.Ankle.Med			L.Heel			R.Heel			L.Knee.Lat			R.Knee.Lat			L.Knee.Med			R.Knee.Med			L.Thigh.Upper			R.Thigh.Upper			L.ASIS			R.ASIS			V.Sacral			L.Acromium			R.Acromium			C7			L.Elbow			R.Elbow			L.Wrist.Lat			R.Wrist.Lat
		X1	Y1	Z1	X2	Y2	Z2	X3	Y3	Z3	X4	Y4	Z4	X5	Y5	Z5	X6	Y6	Z6	X7	Y7	Z7	X8	Y8	Z8	X9	Y9	Z9	X10	Y10	Z10	X11	Y11	Z11	X12	Y12	Z12	X13	Y13	Z13	X14	Y14	Z14	X15	Y15	Z15	X16	Y16	Z16	X17	Y17	Z17	X18	Y18	Z18	X19	Y19	Z19	X20	Y20	Z20	X21	Y21	Z21	X22	Y22	Z22	X23	Y23	Z23	X24	Y24	Z24

1	0	-1.5732129	0.032341626	-0.095248907	-0.91796799	0.12509696	0.13407138	-1.6920854	0.074628597	-0.099380429	-1.0458369	0.088658763	0.14565996	-1.6803786	0.082524621	-0.014110494	-1.0349176	0.11680379	0.060468241	NaN	NaN	NaN	-1.0784092	0.041106121	0.07488622	-1.5280779	0.4057389	-0.1156496	-1.1847254	0.45210751	0.1431052	-1.5413085	0.41237921	0.0076451319	-1.2005013	0.42314451	0.015288274	-1.4147776	0.77357317	-0.17594781	-1.3767634	0.77303331	0.17121107	-1.3267129	0.81113348	-0.14139275	-1.2928141	0.82344481	0.10388798	-1.4833699	0.90453223	0.0042687886	-1.3149818	1.3026959	-0.19108489	-1.3259627	1.283259	0.17223996	-1.3961519	1.3363049	-0.01078775	-1.2929714	0.98276265	-0.27234437	-1.4670508	0.99814986	0.23065438	-1.076336	0.86494797	-0.23246161	-1.3797861	0.77572506	0.2599927
2	0.004	-1.5731379	0.032303971	-0.095332626	-0.90627069	0.12789068	0.13393148	-1.6916839	0.0753317	-0.099281548	-1.033628	0.089383839	0.14553842	-1.679761	0.083186259	-0.014134232	-1.0231372	0.11784706	0.060463238	NaN	NaN	NaN	-1.0655194	0.041439351	0.074776577	-1.5243764	0.40494566	-0.11565334	-1.1771987	0.45093991	0.143239	-1.5365538	0.4115699	0.0075559787	-1.1935033	0.42138248	0.015226022	-1.4093872	0.77195943	-0.1756196	-1.3693246	0.77109079	0.17135354	-1.3211374	0.8092935	-0.14148414	-1.2857841	0.82124341	0.10370123	-1.4769663	0.90290633	0.0050153588	-1.3088728	1.3009862	-0.19050056	-1.3200258	1.2812886	0.17300741	-1.3899863	1.3345777	-0.010049338	-1.2850065	0.98109953	-0.27179386	-1.4617246	0.99646243	0.23111155	-1.067869	0.86471925	-0.23130314	-1.3763587	0.77350566	0.2609224
3	0.008	-1.5730797	0.032259411	-0.09538935	-0.89493767	0.13036342	0.13368899	-1.6912684	0.076096902	-0.099221634	-1.0217798	0.089967388	0.14538496	-1.6789755	0.083907704	-0.014198985	-1.0117169	0.11875686	0.060372569	NaN	NaN	NaN	-1.0531002	0.041683796	0.074596799	-1.5206008	0.40415998	-0.1156757	-1.1695134	0.44979379	0.1434163	-1.5318326	0.41072946	0.0074686985	-1.1864255	0.41966147	0.015171931	-1.4039614	0.77035131	-0.1752843	-1.3614937	0.76926148	0.17162762	-1.3152284	0.80749747	-0.14153565	-1.2787202	0.81904436	0.10352474	-1.4705283	0.90130848	0.0058257983	-1.3027411	1.2992943	-0.18989664	-1.3140466	1.2793295	0.17377864	-1.3838072	1.3328751	-0.0093623957	-1.2770802	0.97947021	-0.27121521	-1.4564468	0.99484075	0.23163438	-1.0594534	0.86446744	-0.23015571	-1.3728549	0.77132051	0.26182686
4	0.012	-1.5730417	0.032209532	-0.095416616	-0.88416633	0.13228295	0.13331871	-1.6908055	0.076955833	-0.099226464	-1.0105199	0.090332142	0.14516003	-1.6780888	0.084724244	-0.014292581	-1.0008725	0.11943186	0.060156554	NaN	NaN	NaN	-1.041431	0.041777449	0.074333444	-1.5166942	0.40339031	-0.11572566	-1.1616149	0.4486894	0.14363696	-1.5270974	0.40986527	0.0073781954	-1.179201	0.41802274	0.015130368	-1.3984637	0.76875361	-0.17493719	-1.3530803	0.76760537	0.17209477	-1.30907	0.80576248	-0.14150905	-1.2715969	0.81685868	0.10335245	-1.4640289	0.89975773	0.0067188092	-1.2965635	1.2976363	-0.18926493	-1.3079808	1.2774024	0.17455034	-1.3775762	1.3312193	-0.0086876619	-1.2692061	0.97789055	-0.27059854	-1.451146	0.99329524	0.23220919	-1.0511147	0.8641861	-0.22902088	-1.3692247	0.7691949	0.26270808
5	0.016	-1.5730197	0.032160488	-0.09542908	-0.87401022	0.1335419	0.13287061	-1.6902699	0.077912858	-0.099301678	-0.99994282	0.09048038	0.1448173	-1.6774525	0.085599576	-0.014330547	-0.99069373	0.11981356	0.059812875	NaN	NaN	NaN	-1.0306162	0.041690605	0.074012828	-1.5126367	0.4026551	-0.11580872	-1.1535434	0.4476439	0.14386228	-1.5223294	0.40900103	0.0072993574	-1.1718019	0.4165142	0.015097985	-1.3928752	0.7671827	-0.17457028	-1.3441493	0.76612676	0.17273472	-1.3030971	0.80407013	-0.14140632	-1.2644276	0.8147109	0.10316824	-1.4574623	0.8982637	0.0076604264	-1.2903326	1.2960285	-0.18861328	-1.3018059	1.2755293	0.17531564	-1.371266	1.3296278	-0.0079528155	-1.2613957	0.97636187	-0.2699342	-1.4456859	0.99179839	0.23276246	-1.0428705	0.86387828	-0.22789537	-1.3654394	0.76714664	0.26358794
6	0.02	-1.5730108	0.032114959	-0.095442558	-0.86445565	0.13414162	0.13237751	-1.6896613	0.078971545	-0.099439534	-0.99003472	0.090464944	0.1443098	-1.6776728	0.086403246	-0.014141596	-0.98119254	0.11987305	0.05935048	NaN	NaN	NaN	-1.0206628	0.041416973	0.073643314	-1.5084232	0.40196352	-0.11592324	-1.145333	0.44667181	0.14404614	-1.517571	0.40815005	0.0072604783	-1.1642166	0.41518814	0.015064714	-1.3871839	0.76565796	-0.17417586	-1.3348959	0.76479883	0.17348306	-1.2976542	0.80238918	-0.14127277	-1.2572289	0.8126315	0.10296475	-1.4508272	0.89682183	0.0085737163	-1.2840399	1.2944819	-0.18794979	-1.295516	1.2737203	0.17607743	-1.3648802	1.3280981	-0.0071638041	-1.2536579	0.97488006	-0.26920606	-1.4399986	0.99033506	0.23325149	-1.0347233	0.8635407	-0.22677374	-1.3614671	0.76518708	0.26448213
7	0.024	-1.5730133	0.032072395	-0.095468007	-0.85549116	0.1341462	0.13178155	-1.6889944	0.080133628	-0.099628955	-0.98075056	0.090316518	0.14361488	-1.6791061	0.087047078	-0.013620736	-0.97235599	0.11959179	0.058778706	NaN	NaN	NaN	-1.0115553	0.04094701	0.07322321	-1.5040492	0.40130289	-0.11605003	-1.136988	0.44578927	0.14414997	-1.5128174	0.40731746	0.0072566119	-1.1564464	0.41409143	0.015016631	-1.3813824	0.76418972	-0.17375124	-1.3255508	0.7635854	0.17426317	-1.2927224	0.80071171	-0.14115766	-1.2499904	0.81064414	0.1027515	-1.4441284	0.89541826	0.0093655764	-1.2776771	1.2929994	-0.18726623	-1.2891216	1.2719803	0.17684625	-1.3584491	1.3266079	-0.0064053584	-1.2460001	0.97344446	-0.26840716	-1.4341227	0.98891956	0.23369321	-1.0266677	0.86316679	-0.22565136	-1.357292	0.76332148	0.26538422
8	0.028	-1.5730235	0.032032694	-0.095510554	-0.84712634	0.13363056	0.13096558	-1.6882724	0.081394769	-0.099864648	-0.97210619	0.089963485	0.14277168	-1.6810475	0.087684546	-0.013008145	-0.96417692	0.11895493	0.058104533	NaN	NaN	NaN	-1.0032865	0.040248408	0.072780075	-1.4995068	0.40066244	-0.11617548	-1.1285043	0.44501842	0.1441416	-1.5079958	0.40649683	0.00724608	-1.148512	0.41325151	0.014942847	-1.375468	0.76277994	-0.17329263	-1.3163572	0.76244745	0.17499884	-1.2879779	0.7990598	-0.14109432	-1.2426774	0.80875339	0.10254507	-1.4373739	0.89404061	0.0099937689	-1.2712425	1.2915776	-0.18654638	-1.2826328	1.2703107	0.17762814	-1.3520064	1.3251357	-0.005769074	-1.2384248	0.97205942	-0.26754255	-1.4281336	0.98757863	0.23412305	-1.018693	0.86275783	-0.2245255	-1.3529399	0.76154632	0.26627559
9	0.032	-1.5730284	0.031996115	-0.09557353	-0.83937446	0.13264158	0.12983997	-1.6874641	0.082758014	-0.10015595	-0.96418386	0.089259676	0.14186911	-1.6820321	0.088634911	-0.012794688	-0.95665566	0.11795783	0.057335806	NaN	NaN	NaN	-0.99585165	0.039286108	0.072347565	-1.494777	0.40004466	-0.11631472	-1.1198942	0.44438683	0.14399803	-1.5030316	0.4056803	0.0071876748	-1.1404464	0.41267062	0.014850266	-1.3694415	0.76142846	-0.17279868	-1.3075661	0.7613445	0.17562285	-1.2829546	0.79747185	-0.14110731	-1.2352524	0.80695876	0.10235973	-1.4305456	0.89267934	0.010560155	-1.2647382	1.2902135	-0.18578757	-1.2760427	1.2687068	0.17842352	-1.3455675	1.3236819	-0.0052907644	-1.2309304	0.97073098	-0.26662128	-1.4220978	0.98633968	0.23456679	-1.0107896	0.86232109	-0.22339557	-1.3484701	0.7598513	0.26714064
10	0.036	-1.5729938	0.031961559	-0.09566303	-0.83224439	0.13119315	0.12839005	-1.6865149	0.084230147	-0.10052649	-0.95704322	0.088120236	0.14096874	-1.6812905	0.090064703	-0.013223731	-0.94979186	0.11660924	0.056482693	NaN	NaN	NaN	-0.98923473	0.038044171	0.071930961	-1.4898329	0.39944609	-0.11648299	-1.1112078	0.44390956	0.14370941	-1.4978408	0.40487598	0.0070600773	-1.1322745	0.41233604	0.014764222	-1.3633057	0.76013814	-0.17227483	-1.2993656	0.76024852	0.17609922	-1.277171	0.79598908	-0.14121931	-1.2277023	0.80527729	0.10220952	-1.4235395	0.89131975	0.011400346	-1.258161	1.2889119	-0.18500002	-1.269346	1.2671663	0.17923519	-1.3391063	1.3222712	-0.004884552	-1.2235165	0.96946317	-0.26564733	-1.4160552	0.98522412	0.23503548	-1.0029687	0.86185796	-0.22226929	-1.3439404	0.7582298	0.26797083
11	0.04	-1.5728732	0.031926669	-0.095785953	-0.82575533	0.12928748	0.12668039	-1.685391	0.085807754	-0.10099426	-0.95066869	0.086579985	0.14006762	-1.6792652	0.091872475	-0.01411526	-0.94358454	0.11492774	0.05555602	NaN	NaN	NaN	-0.98340453	0.036527632	0.071508977	-1.4846582	0.39885084	-0.11666599	-1.1025214	0.4435723	0.14327561	-1.4923499	0.40409098	0.0068691577	-1.1240073	0.41223417	0.014707736	-1.3570643	0.75891448	-0.17172882	-1.2917447	0.75917017	0.17644878	-1.2702773	0.79464358	-0.14143929	-1.220047	0.80373856	0.10210739	-1.4161342	0.88994904	0.013047515	-1.2515062	1.2876818	-0.18418738	-1.2625587	1.2656967	0.18006956	-1.3325604	1.3209339	-0.0043502393	-1.2161848	0.96825911	-0.2646184	-1.409992	0.9842303	0.2355208	-0.99526323	0.86136287	-0.22116277	-1.339368	0.75669009	0.26876676
12	0.044	-1.5726566	0.031889963	-0.095937469	-0.81993027	0.12692116	0.12484007	-1.6841203	0.087478354	-0.10154629	-0.94500062	0.084722044	0.13913248	-1.676787	0.093856773	-0.015158781	-0.93802851	0.11294029	0.054566298	NaN	NaN	NaN	-0.97831883	0.034764549	0.071032431	-1.479267	0.39824596	-0.1168395	-1.0938847	0.44334146	0.14271051	-1.4865887	0.40331631	0.0066490574	-1.1156575	0.41234692	0.014687403	-1.3507189	0.75775876	-0.17116775	-1.284463	0.75816047	0.17673874	-1.2622835	0.79344455	-0.14172853	-1.2123073	0.80236498	0.10205977	-1.4080916	0.88859106	0.015875539	-1.2447832	1.2865284	-0.18334128	-1.2557055	1.2643103	0.18093121	-1.325871	1.3196823	-0.003483109	-1.208938	0.96712165	-0.26353317	-1.4038439	0.98332137	0.2359987	-0.98769724	0.86083413	-0.2200854	-1.334716	0.75525057	0.26954337
